<svg width="100" height="99" fill="none" xmlns="http://www.w3.org/2000/svg"><g opacity=".25" filter="url(#filter0_f_10_1042)"><path fill="#7FA706" d="M7 7h86v85H7z"/></g><path fill="#99C11E" d="M8 2h84v85H8z"/><path fill="#8CB118" d="M8 2h84v5H8z"/><path fill-rule="evenodd" clip-rule="evenodd" d="M20.17 34.17c-.094.09-.17 1.006-.17 2.035 0 2.865.124 2.965 3.697 2.965h2.906l.066 8.545.067 8.546h6.248l.053-8.484.054-8.484 3.242-.069 3.24-.069v-2.188c0-1.661-.096-2.281-.399-2.575-.348-.337-1.576-.386-9.617-.386-5.07 0-9.294.074-9.387.164zm22.815.437c-.71.347-1.551.898-1.869 1.225l-.577.595 3.267 6.142 3.266 6.142-1.97 2.826c-1.083 1.554-1.968 3.03-1.966 3.282.01 1.12.97 1.565 3.37 1.565h1.883l1.41-1.906c1.98-2.676 3.424-4.902 5.301-8.177 2.169-3.783 4.808-9.53 4.809-10.474.001-1.19-.752-1.668-2.81-1.78-2.674-.146-2.874-.048-3.535 1.738-.922 2.494-2.84 6.828-3.02 6.827-.092-.001-.968-1.658-1.946-3.681-.979-2.024-1.954-3.908-2.167-4.186-.625-.816-1.951-.869-3.446-.138zm18.365-.437c-.297.287-.174 3.377.159 4.016.306.587.447.62 3.11.738l2.79.123.066 8.34c.046 5.654.158 8.445.35 8.668.204.239 1.07.329 3.17.329h2.89l.066-8.669.067-8.668 2.987-.07 2.987-.068V36.84c0-3.025.66-2.834-9.801-2.834-4.77 0-8.748.074-8.84.164z" fill="#fff"/><path d="M28.112 64.132v-5.51l1.712.053c1.131.035 1.78.122 1.914.256.143.142.227.95.281 2.699l.078 2.495.938-.76c1.103-.895 2.17-2.212 2.964-3.658l.57-1.037.599.211c1.578.557 2.28 1.233 2.144 2.066-.105.65-1.17 2.217-2.33 3.432l-.92.962.487 1.143c.993 2.333 1.823 3.42 2.613 3.42.612 0 .828.383.828 1.468 0 1.048-.847 1.658-2.305 1.658-1.04 0-1.974-.51-2.701-1.474-.613-.81-1.594-2.761-1.797-3.57-.129-.511-.139-.513-.71-.106l-.45.32-.043 2.376-.043 2.376-1.602.045c-2.321.064-2.227.172-2.227-2.54v-2.251l-.454-.323c-.63-.449-.72-.416-.943.34-.271.917-1.31 2.887-1.897 3.6-.654.794-1.506 1.207-2.487 1.207-1.907 0-2.763-1.044-2.12-2.584.187-.447.31-.542.693-.542.345 0 .586-.147.937-.573.545-.661 1.262-1.965 1.717-3.121l.315-.802-.403-.37c-.631-.58-2.214-2.608-2.553-3.273-.619-1.214-.242-1.974 1.308-2.636 1.15-.492 1.256-.451 1.906.732.992 1.807 2.464 3.463 3.63 4.083l.351.188zm27.351-3.965c0-.279 1.066-1.065 1.797-1.325 1.295-.462 1.581-.196 3.007 2.796.65 1.365 1.23 2.483 1.289 2.483.127 0 1.077-2.161 1.735-3.946.26-.706.557-1.337.66-1.402.267-.17 2.203-.15 2.668.026.216.082.51.33.655.55.247.377.246.446-.013 1.14-.434 1.165-2.322 5.06-3.22 6.645-1.082 1.912-2.956 4.762-3.544 5.392-.432.462-.551.504-1.43.504-1.12 0-1.97-.307-2.115-.766-.123-.389-.176-.286 1.282-2.456l1.168-1.738-1.97-3.825c-1.083-2.104-1.97-3.94-1.97-4.078zm15.247 1.765c-2.336 0-2.46-.117-2.311-2.191l.078-1.091h5.414c4.647 0 5.463.034 5.761.243.315.22.348.374.348 1.641v1.398h-3.907V73.03h-1.708c-1.345 0-1.76-.052-1.954-.245-.213-.214-.245-.937-.245-5.55v-5.303H70.71z" fill="#fff"/><path fill-rule="evenodd" clip-rule="evenodd" d="M44.14 60.72c-.133 2.651-.473 5.404-.912 7.386l-.347 1.564-.664.047-.664.049v2.871c0 2.427.039 2.91.25 3.122.206.206.562.243 1.993.207l1.742-.044.045-1.446.045-1.446h5.146v1.298c0 .8.072 1.369.188 1.484.123.124.788.188 1.953.188h1.766v-2.939c0-2.077-.055-2.993-.187-3.126-.103-.103-.455-.187-.782-.187h-.594V64.51c0-5.028-.012-5.248-.312-5.549-.297-.297-.521-.312-4.437-.312h-4.124l-.105 2.07zm5.227 5.308c0-2.686-.052-3.773-.187-3.908-.103-.103-.55-.188-.993-.188h-.806l-.193 2.15c-.178 1.978-.522 4.461-.736 5.314-.087.346-.066.352 1.414.352h1.501v-3.72z" fill="#fff"/><defs><filter id="filter0_f_10_1042" x="0" y="0" width="100" height="99" filterUnits="userSpaceOnUse" color-interpolation-filters="sRGB"><feFlood flood-opacity="0" result="BackgroundImageFix"/><feBlend in="SourceGraphic" in2="BackgroundImageFix" result="shape"/><feGaussianBlur stdDeviation="3.5" result="effect1_foregroundBlur_10_1042"/></filter></defs></svg>