<svg width="18" height="18" fill="none" xmlns="http://www.w3.org/2000/svg"><path d="M15 2.25v-1a1 1 0 00-2 0v1H5v-1a1 1 0 00-2 0v1a3.009 3.009 0 00-3 3v9.722a3.009 3.009 0 003 3h12a3.009 3.009 0 003-3V5.25a3.01 3.01 0 00-3-3zm1 12.722a1 1 0 01-1 1H3a1 1 0 01-1-1V5.25a1 1 0 011-1h12a1 1 0 011 1v9.722zm-1.75-9.278H4a1 1 0 100 2h10.25a1 1 0 100-2z" fill="#85949E"/><path d="M4.083 9.111h1.25a1 1 0 010 2h-1.25a1 1 0 010-2zm4.25 0h1.5a1 1 0 110 2h-1.5a1 1 0 010-2zm4.5 0h1.25a1 1 0 110 2h-1.25a1 1 0 010-2zm-8.75 3.25h1.25a1 1 0 110 2h-1.25a1 1 0 010-2zm4.25 0h5.75a1 1 0 110 2h-5.75a1 1 0 010-2z" fill="#85949E"/></svg>