<svg width="132" height="133" fill="none" xmlns="http://www.w3.org/2000/svg"><path fill-rule="evenodd" clip-rule="evenodd" d="M66 86.05c-4.548 0-8.25-3.701-8.25-8.25 0-4.549 3.702-8.25 8.25-8.25 4.549 0 8.25 3.701 8.25 8.25 0 4.549-3.701 8.25-8.25 8.25zm0-27.5c-10.615 0-19.25 8.635-19.25 19.25S55.385 97.05 66 97.05s19.25-8.635 19.25-19.25S76.615 58.55 66 58.55zm44 41.25c0 3.031-2.464 5.5-5.5 5.5h-77a5.505 5.505 0 01-5.5-5.5v-44c0-3.03 2.464-5.5 5.5-5.5h77c3.036 0 5.5 2.47 5.5 5.5v44zM55 31.05a2.755 2.755 0 012.75-2.75h16.5A2.755 2.755 0 0177 31.05v8.25H55v-8.25zm49.5 8.25H88v-8.25c0-7.579-6.165-13.75-13.75-13.75h-16.5C50.166 17.3 44 23.471 44 31.05v8.25H27.5c-9.097 0-16.5 7.403-16.5 16.5v44c0 9.097 7.403 16.5 16.5 16.5h77c9.097 0 16.5-7.403 16.5-16.5v-44c0-9.097-7.403-16.5-16.5-16.5z" fill="#F3F6F9"/></svg>