<svg width="98" height="130" fill="none" xmlns="http://www.w3.org/2000/svg"><path fill-rule="evenodd" clip-rule="evenodd" d="M65 75.833H48.75a5.419 5.419 0 01-5.417-5.416A5.419 5.419 0 0148.75 65H65a5.419 5.419 0 015.417 5.417A5.419 5.419 0 0165 75.833zm-21.667 16.25a5.419 5.419 0 015.417-5.416h32.5a5.415 5.415 0 015.417 5.416A5.415 5.415 0 0181.25 97.5h-32.5a5.419 5.419 0 01-5.417-5.417zm51.157 16.25H35.508c-1.658 0-3.006-1.213-3.006-2.708v-81.25c0-1.495 1.348-2.708 3.006-2.708H65v17.062c0 8.515 6.593 15.438 14.701 15.438h17.8v51.458c0 1.495-1.35 2.708-3.012 2.708zM75.835 26.964l14.852 16.37H79.702c-2.134 0-3.867-2.065-3.867-4.605V26.964zm31.092 18.146l-29.489-32.5a5.415 5.415 0 00-4.014-1.777H35.508c-7.632 0-13.84 6.078-13.84 13.542v81.25c0 7.464 6.208 13.542 13.84 13.542H94.49c7.632 0 13.845-6.078 13.845-13.542V48.75a5.416 5.416 0 00-1.408-3.64z" fill="#85949E" opacity=".03"/></svg>