<svg width="100" height="130" fill="none" xmlns="http://www.w3.org/2000/svg"><path fill-rule="evenodd" clip-rule="evenodd" d="M102.863 108.334H86.668V70.417A5.415 5.415 0 0081.25 65h-32.5a5.412 5.412 0 00-5.417 5.417v37.917h-16.25l.033-45.593L64.99 24.007l37.928 38.956-.055 45.371zm-48.695 0h21.666v-32.5H54.168v32.5zm56.463-53.165L68.874 12.464c-2.042-2.086-5.704-2.086-7.746 0l-41.762 42.71c-1.977 2.032-3.115 4.87-3.115 7.79v45.37c0 5.974 4.588 10.833 10.227 10.833h77.041c5.639 0 10.232-4.859 10.232-10.833v-45.37c0-2.92-1.138-5.758-3.12-7.795z" fill="#85949E" opacity=".03"/></svg>