<svg width="100" height="130" fill="none" xmlns="http://www.w3.org/2000/svg"><path fill-rule="evenodd" clip-rule="evenodd" d="M32.5 54.167a5.422 5.422 0 015.416-5.417 5.422 5.422 0 015.417 5.417 5.422 5.422 0 01-5.416 5.416 5.422 5.422 0 01-5.417-5.416zm-10.834 0c0 8.959 7.291 16.25 16.25 16.25 8.96 0 16.25-7.291 16.25-16.25 0-8.96-7.29-16.25-16.25-16.25-8.959 0-16.25 7.29-16.25 16.25zm48.75-16.25c0-5.975 4.86-10.834 10.834-10.834 5.974 0 10.833 4.86 10.833 10.834 0 5.974-4.859 10.833-10.833 10.833-5.975 0-10.834-4.859-10.834-10.833zm-10.833 0c0 11.949 9.718 21.666 21.667 21.666 11.949 0 21.667-9.717 21.667-21.666 0-11.95-9.718-21.667-21.667-21.667-11.95 0-21.667 9.718-21.667 21.667zm-5.091 43.582a27.049 27.049 0 00-16.575-5.666c-14.934 0-27.084 12.15-27.084 27.084a5.415 5.415 0 005.417 5.416 5.415 5.415 0 005.416-5.416c0-8.96 7.291-16.25 16.25-16.25 3.7 0 7.216 1.267 10.054 3.515a37.768 37.768 0 00-4.637 18.151 5.415 5.415 0 005.417 5.417 5.415 5.415 0 005.416-5.417c0-14.933 12.15-27.083 27.084-27.083s27.083 12.15 27.083 27.083a5.415 5.415 0 005.417 5.417 5.416 5.416 0 005.417-5.417c0-20.908-17.014-37.916-37.917-37.916-10.438 0-19.896 4.24-26.758 11.082z" fill="#85949E" opacity=".03"/></svg>