<svg width="124" height="22" fill="none" xmlns="http://www.w3.org/2000/svg"><path fill-rule="evenodd" clip-rule="evenodd" d="M.132.167C.059.239 0 .977 0 1.805 0 4.11.097 4.19 2.878 4.19H5.14l.052 6.876.052 6.876h4.863l.042-6.827.042-6.826 2.523-.056 2.523-.055v-1.76c0-1.337-.075-1.836-.31-2.072-.272-.271-1.228-.311-7.488-.311C3.493.035.204.095.132.167zm17.76.351c-.552.28-1.207.724-1.454.987l-.45.478 2.543 4.943 2.543 4.943-1.533 2.273c-.844 1.25-1.532 2.44-1.53 2.642.007.9.754 1.258 2.623 1.258h1.465l1.098-1.533c1.541-2.153 2.665-3.945 4.127-6.58 1.688-3.044 3.742-7.67 3.743-8.429.001-.958-.586-1.341-2.188-1.432-2.081-.118-2.237-.038-2.751 1.399-.718 2.007-2.21 5.494-2.351 5.493-.072 0-.753-1.334-1.515-2.962C21.5 2.369 20.74.854 20.575.63c-.486-.657-1.519-.7-2.683-.112zM32.19.167c-.231.23-.136 2.718.123 3.232.239.472.349.5 2.422.594l2.171.099.052 6.71c.036 4.55.123 6.797.272 6.976.16.192.833.264 2.468.264h2.249l.052-6.975.052-6.975 2.325-.056L46.7 3.98V2.316c0-2.435.514-2.281-7.63-2.281-3.712 0-6.809.06-6.881.132zm25.79 3.32v3.488l-.445-.237c-1.475-.785-3.339-2.882-4.596-5.17C52.115.07 51.983.02 50.526.642c-1.963.839-2.44 1.8-1.656 3.337.43.842 2.433 3.41 3.232 4.144l.51.468-.399 1.016c-.575 1.464-1.483 3.114-2.173 3.951-.444.54-.75.726-1.188.726-.485 0-.64.12-.875.686-.815 1.95.269 3.271 2.683 3.271 1.242 0 2.32-.523 3.149-1.528.744-.902 2.058-3.397 2.402-4.557.283-.958.397-.999 1.194-.431l.575.409v2.849c0 3.434-.12 3.297 2.82 3.216l2.028-.057.054-3.007.055-3.008.57-.406c.722-.515.735-.513.898.135.257 1.023 1.5 3.493 2.275 4.52.921 1.22 2.104 1.865 3.42 1.865 1.846 0 2.919-.772 2.919-2.1 0-1.372-.274-1.857-1.05-1.857-.999 0-2.05-1.377-3.307-4.33l-.616-1.448 1.163-1.217c1.47-1.538 2.818-3.522 2.951-4.344.172-1.055-.717-1.911-2.715-2.616L68.688.06l-.722 1.313c-1.006 1.83-2.357 3.497-3.753 4.63l-1.187.963-.1-3.16c-.069-2.212-.175-3.237-.355-3.416-.17-.17-.991-.28-2.424-.324L57.98 0v3.487zm20.294-.83c-.169 3.356-.6 6.84-1.155 9.35l-.438 1.979-.842.06-.84.062v3.635c0 3.071.049 3.684.317 3.952.26.26.711.308 2.523.262l2.206-.056.056-1.83.057-1.83h6.516v1.642c0 1.013.09 1.733.237 1.88.157.156.998.237 2.474.237h2.236v-3.72c0-2.63-.07-3.79-.238-3.958-.13-.13-.576-.237-.99-.237h-.751v-6.63c0-6.365-.016-6.644-.396-7.024-.376-.376-.66-.396-5.617-.396h-5.222l-.133 2.622zM94.885.277c-.926.331-2.276 1.326-2.276 1.68 0 .174 1.122 2.497 2.494 5.161l2.493 4.843-1.478 2.2c-1.847 2.747-1.779 2.617-1.623 3.11.184.58 1.258.97 2.679.97 1.111 0 1.262-.054 1.81-.64.744-.796 3.117-4.405 4.487-6.825 1.137-2.006 3.527-6.938 4.077-8.412.328-.879.329-.967.016-1.443-.183-.28-.556-.593-.829-.697-.59-.224-3.041-.248-3.379-.033-.13.082-.506.881-.835 1.775-.833 2.26-2.036 4.995-2.197 4.995-.073 0-.808-1.415-1.632-3.143C96.887.03 96.524-.307 94.885.278zm14.103 1.14c-.188 2.625-.031 2.774 2.928 2.774h1.867v6.714c0 5.839.04 6.754.31 7.024.245.245.772.311 2.474.311h2.163V4.191h4.947V2.42c0-1.605-.042-1.799-.44-2.078-.378-.264-1.411-.308-7.295-.308h-6.855l-.099 1.381zm-24.334 3.01c.172.171.238 1.548.238 4.947v4.71H82.99c-1.873 0-1.9-.007-1.79-.446.272-1.08.707-4.223.932-6.728l.245-2.72h1.02c.56 0 1.127.106 1.257.237z" fill="#303438"/></svg>