<svg width="117" height="165" fill="none" xmlns="http://www.w3.org/2000/svg"><path fill-rule="evenodd" clip-rule="evenodd" d="M83.636 96.25H62.727c-3.847 0-6.97-3.08-6.97-6.875s3.123-6.875 6.97-6.875h20.909c3.847 0 6.97 3.08 6.97 6.875s-3.123 6.875-6.97 6.875zM62.727 110h41.818c3.854 0 6.97 3.08 6.97 6.875s-3.116 6.875-6.97 6.875H62.727c-3.847 0-6.97-3.08-6.97-6.875S58.88 110 62.727 110zm58.854 27.5H45.688c-2.132 0-3.868-1.54-3.868-3.438V30.937c0-1.897 1.736-3.437 3.868-3.437h37.95v21.656c0 10.808 8.482 19.594 18.916 19.594h22.902v65.312c0 1.898-1.735 3.438-3.875 3.438zM97.577 34.224L116.688 55h-14.134c-2.746 0-4.977-2.62-4.977-5.844V34.224zm40.006 23.031L99.64 16.005a7.011 7.011 0 00-5.164-2.255H45.688c-9.82 0-17.807 7.714-17.807 17.188v103.124c0 9.474 7.987 17.188 17.807 17.188h75.893c9.82 0 17.814-7.714 17.814-17.188V61.875a6.818 6.818 0 00-1.812-4.62z" fill="#EAEEF1" opacity=".5"/></svg>