<svg width="117" height="165" fill="none" xmlns="http://www.w3.org/2000/svg"><path fill-rule="evenodd" clip-rule="evenodd" d="M132.424 123.75H34.848c-3.84 0-6.97-3.08-6.97-6.875V49.844L79.455 88a6.998 6.998 0 004.182 1.375c1.47 0 2.941-.454 4.182-1.375l51.575-38.156v67.031c0 3.795-3.129 6.875-6.969 6.875zm-4.649-82.5L83.636 73.906 39.497 41.25h88.278zm4.649-13.75H34.848c-11.527 0-20.908 9.254-20.908 20.625v68.75c0 11.371 9.38 20.625 20.908 20.625h97.576c11.528 0 20.909-9.254 20.909-20.625v-68.75c0-11.371-9.381-20.625-20.909-20.625z" fill="#EAEEF1" opacity=".5"/></svg>