<svg width="130" height="100" fill="none" xmlns="http://www.w3.org/2000/svg"><path fill-rule="evenodd" clip-rule="evenodd" d="M81.25 75.583H70.417V64.75A5.415 5.415 0 0065 59.333a5.415 5.415 0 00-5.417 5.417V81A5.415 5.415 0 0065 86.417h16.25A5.415 5.415 0 0086.667 81a5.415 5.415 0 00-5.417-5.417zM65 117.563c-20.16 0-36.563-16.402-36.563-36.563 0-20.16 16.402-36.563 36.563-36.563 20.16 0 36.562 16.402 36.562 36.563S85.161 117.563 65 117.563zm5.352-84.999c.01-.114.065-.2.065-.314v-5.417h5.416a5.415 5.415 0 005.417-5.416A5.415 5.415 0 0075.833 16H54.167a5.415 5.415 0 00-5.417 5.417 5.415 5.415 0 005.417 5.416h5.416v5.417c0 .114.055.2.065.314C35.278 35.24 16.25 55.932 16.25 81c0 26.883 21.873 48.75 48.75 48.75s48.75-21.867 48.75-48.75c0-25.068-19.029-45.76-43.398-48.436z" fill="#F9FBFE"/></svg>