<svg width="130" height="100" fill="none" xmlns="http://www.w3.org/2000/svg"><path fill-rule="evenodd" clip-rule="evenodd" d="M102.917 107.917a5.422 5.422 0 01-5.417 5.416h-65a5.422 5.422 0 01-5.417-5.416V48.333a5.422 5.422 0 015.417-5.416v5.416c0 5.975 4.859 10.834 10.833 10.834h43.334c5.974 0 10.833-4.859 10.833-10.834v-5.416a5.422 5.422 0 015.417 5.416v59.584zm-59.584-81.25l43.334.016v21.65H43.333V26.668zM97.5 32.083v-5.416c0-5.975-4.859-10.834-10.833-10.834H43.333c-5.974 0-10.833 4.86-10.833 10.834v5.416c-8.96 0-16.25 7.291-16.25 16.25v59.584c0 8.959 7.29 16.25 16.25 16.25h65c8.959 0 16.25-7.291 16.25-16.25V48.333c0-8.959-7.291-16.25-16.25-16.25z" fill="#F9FBFE"/></svg>