<svg width="18" height="18" fill="none" xmlns="http://www.w3.org/2000/svg"><g opacity=".5"><path fill-rule="evenodd" clip-rule="evenodd" d="M3.75 8.25c0-2.482 2.018-4.5 4.5-4.5s4.5 2.018 4.5 4.5-2.018 4.5-4.5 4.5a4.504 4.504 0 01-4.5-4.5zm11.78 6.22l-2.546-2.547A5.964 5.964 0 0014.25 8.25c0-3.308-2.692-6-6-6s-6 2.692-6 6 2.692 6 6 6a5.963 5.963 0 003.673-1.266l2.547 2.546a.748.748 0 001.06 0 .75.75 0 000-1.06z" fill="#B5BCC1"/><mask id="a" style="mask-type:alpha" maskUnits="userSpaceOnUse" x="2" y="2" width="14" height="14"><path fill-rule="evenodd" clip-rule="evenodd" d="M3.75 8.25c0-2.482 2.018-4.5 4.5-4.5s4.5 2.018 4.5 4.5-2.018 4.5-4.5 4.5a4.504 4.504 0 01-4.5-4.5zm11.78 6.22l-2.546-2.547A5.964 5.964 0 0014.25 8.25c0-3.308-2.692-6-6-6s-6 2.692-6 6 2.692 6 6 6a5.963 5.963 0 003.673-1.266l2.547 2.546a.748.748 0 001.06 0 .75.75 0 000-1.06z" fill="#fff"/></mask><g mask="url(#a)"><path fill="#B5BCC1" d="M0 0h18v18H0z"/></g></g></svg>