<svg width="20" height="20" fill="none" xmlns="http://www.w3.org/2000/svg"><path fill-rule="evenodd" clip-rule="evenodd" d="M15.832 11.667a.833.833 0 01-1.367.64L9.99 8.577l-4.468 3.596a.834.834 0 01-1.045-1.3l5-4.023a.834.834 0 011.056.01l5 4.166c.197.165.3.402.3.641z" fill="#1C7BBB"/><mask id="a" style="mask-type:alpha" maskUnits="userSpaceOnUse" x="4" y="6" width="12" height="7"><path fill-rule="evenodd" clip-rule="evenodd" d="M15.832 11.667a.833.833 0 01-1.367.64L9.99 8.577l-4.468 3.596a.834.834 0 01-1.045-1.3l5-4.023a.834.834 0 011.056.01l5 4.166c.197.165.3.402.3.641z" fill="#fff"/></mask><g mask="url(#a)"><path fill="#1C7BBB" d="M0 20V0h20v20z"/></g></svg>