<svg width="20" height="20" fill="none" xmlns="http://www.w3.org/2000/svg"><path fill-rule="evenodd" clip-rule="evenodd" d="M4.167 8.333a.834.834 0 011.367-.64l4.476 3.73 4.468-3.596a.834.834 0 011.045 1.3l-5 4.023a.834.834 0 01-1.056-.01l-5-4.166a.833.833 0 01-.3-.641z" fill="#1C7BBB"/><mask id="a" style="mask-type:alpha" maskUnits="userSpaceOnUse" x="4" y="7" width="12" height="7"><path fill-rule="evenodd" clip-rule="evenodd" d="M4.167 8.333a.834.834 0 011.367-.64l4.476 3.73 4.468-3.596a.834.834 0 011.045 1.3l-5 4.023a.834.834 0 01-1.056-.01l-5-4.166a.833.833 0 01-.3-.641z" fill="#fff"/></mask><g mask="url(#a)"><path fill="#1C7BBB" d="M20 0v20H0V0z"/></g></svg>