<svg width="100" height="99" viewBox="0 0 100 99" fill="none" xmlns="http://www.w3.org/2000/svg">
<g opacity="0.25" filter="url(#filter0_f_10_1042)">
<rect x="7" y="7" width="86" height="85" fill="#7FA706"/>
</g>
<rect x="8" y="2" width="84" height="85" fill="#99C11E"/>
<rect x="8" y="2" width="84" height="5" fill="#8CB118"/>
<path fill-rule="evenodd" clip-rule="evenodd" d="M20.1696 34.1699C20.0763 34.2599 20 35.176 20 36.2053C20 39.0704 20.1241 39.17 23.6971 39.17H26.6026L26.6695 47.7153L26.7363 56.2607H29.86H32.9839L33.0375 47.7768L33.0914 39.293L36.3325 39.2241L39.5735 39.1552V36.9672C39.5735 35.3055 39.4775 34.6859 39.1742 34.3922C38.8257 34.0553 37.5976 34.0059 29.5567 34.0059C24.4869 34.0059 20.2626 34.0797 20.1696 34.1699ZM42.9849 34.6067C42.2747 34.9539 41.4338 35.5055 41.1163 35.8323L40.539 36.4266L43.8055 42.5692L47.072 48.7115L45.1022 51.5367C44.0188 53.0906 43.1342 54.5678 43.1362 54.8194C43.1458 55.9383 44.1052 56.3836 46.5066 56.3836H48.389L49.7993 54.4778C51.7793 51.8023 53.2229 49.5759 55.1002 46.3014C57.269 42.5178 59.9079 36.7702 59.9089 35.8269C59.9102 34.6364 59.1567 34.1594 57.0985 34.047C54.4248 33.9007 54.2247 33.9993 53.5643 35.7848C52.6423 38.2791 50.7246 42.6127 50.5439 42.6115C50.4521 42.6108 49.5764 40.9543 48.5977 38.9305C47.619 36.9069 46.6439 35.0232 46.4309 34.7449C45.8063 33.9292 44.4799 33.8761 42.9849 34.6067ZM61.3503 34.1699C61.0534 34.4569 61.1756 37.5472 61.5089 38.1864C61.8149 38.7731 61.9565 38.8068 64.619 38.9241L67.4086 39.047L67.4755 47.3868C67.521 53.0412 67.6334 55.8323 67.8245 56.0551C68.0294 56.2939 68.895 56.3836 70.9954 56.3836H73.8842L73.951 47.7153L74.0179 39.047L77.0048 38.9777L79.9916 38.9086V36.84C79.9916 33.8148 80.6521 34.0059 70.1906 34.0059C65.4216 34.0059 61.4433 34.0797 61.3503 34.1699Z" fill="white"/>
<path d="M28.1122 64.1315V61.3769V58.6221L29.824 58.6751C30.9554 58.7099 31.6045 58.7967 31.7385 58.9306C31.8805 59.0726 31.9647 59.8819 32.0194 61.6295L32.0975 64.1254L33.0353 63.3643C34.1376 62.4698 35.2046 61.1533 35.9993 59.7072L36.5694 58.6699L37.168 58.8811C38.7456 59.4377 39.4473 60.114 39.312 60.9475C39.2066 61.5969 38.1423 63.1641 36.9816 64.3788L36.0626 65.3406L36.5491 66.484C37.5417 68.8167 38.3722 69.904 39.1616 69.904C39.7738 69.904 39.9901 70.2874 39.9901 71.3719C39.9901 72.4204 39.1426 73.0302 37.685 73.0302C36.6458 73.0302 35.7112 72.5203 34.9837 71.5565C34.3714 70.7456 33.3896 68.7948 33.1867 67.9867C33.0582 67.4748 33.0481 67.4732 32.4773 67.8798L32.0275 68.2001L31.9844 70.5761L31.9413 72.952L30.3393 72.9966C28.0179 73.0611 28.1122 73.1687 28.1122 70.4562V68.2059L27.6583 67.8826C27.0288 67.4343 26.9386 67.467 26.715 68.2237C26.444 69.1398 25.4056 71.1104 24.8179 71.8233C24.1639 72.6167 23.3119 73.0302 22.3308 73.0302C20.4245 73.0302 19.5684 71.986 20.2116 70.4461C20.3983 69.9995 20.5202 69.904 20.9035 69.904C21.2494 69.904 21.4904 69.7568 21.8414 69.331C22.3862 68.6699 23.1033 67.3662 23.5579 66.2099L23.8733 65.4076L23.4703 65.0376C22.8387 64.4582 21.2563 62.4295 20.9171 61.7647C20.2981 60.5509 20.675 59.791 22.2253 59.1287C23.3757 58.6372 23.4806 58.6776 24.1306 59.8611C25.1232 61.6682 26.5951 63.324 27.7605 63.9444L28.1122 64.1315Z" fill="white"/>
<path d="M55.4627 60.1672C55.4627 59.8885 56.5285 59.1024 57.26 58.8415C58.555 58.3799 58.841 58.6458 60.267 61.6377C60.9178 63.0033 61.4979 64.1206 61.556 64.1206C61.6829 64.1206 62.6332 61.9596 63.291 60.1748C63.5514 59.469 63.848 58.8381 63.9505 58.7729C64.2175 58.6032 66.1537 58.6222 66.619 58.799C66.835 58.8812 67.1299 59.1288 67.2743 59.3492C67.5209 59.7258 67.5202 59.7953 67.2612 60.4895C66.827 61.6535 64.9392 65.5499 64.0416 67.1344C62.959 69.0457 61.0848 71.8963 60.4972 72.5256C60.0652 72.988 59.9459 73.0302 59.0678 73.0302C57.9461 73.0302 57.0979 72.723 56.9524 72.2643C56.8289 71.8752 56.7755 71.9776 58.2338 69.8079L59.4016 68.0705L57.432 64.2448C56.349 62.1406 55.4627 60.3057 55.4627 60.1672Z" fill="white"/>
<path d="M70.7109 61.9322C68.3741 61.9322 68.2502 61.8148 68.3985 59.7408L68.4766 58.6497H73.8909C78.5383 58.6497 79.3545 58.6841 79.6525 58.8931C79.9674 59.1137 79.9999 59.267 79.9999 60.5344V61.9322H78.0463H76.0927V67.4812V73.0302H74.3847C73.0404 73.0302 72.6244 72.9778 72.4311 72.7846C72.2176 72.571 72.1855 71.8483 72.1855 67.2356V61.9322H70.7109Z" fill="white"/>
<path fill-rule="evenodd" clip-rule="evenodd" d="M44.1403 60.7208C44.0067 63.3715 43.6666 66.1244 43.2276 68.1064L42.8814 69.6695L42.2172 69.7175L41.553 69.7657V72.6372C41.553 75.0635 41.5919 75.5477 41.8035 75.7593C42.0093 75.9652 42.3654 76.0021 43.7962 75.966L45.5383 75.9219L45.5834 74.476L45.6282 73.0302H48.2012H50.774V74.3276C50.774 75.1282 50.8457 75.6967 50.9616 75.8125C51.0853 75.9363 51.7499 76.0001 52.9152 76.0001H54.6812V73.0614C54.6812 70.9843 54.6262 70.0678 54.4937 69.9353C54.3905 69.8321 54.0389 69.7477 53.7122 69.7477H53.1183V64.5113C53.1183 59.4833 53.1058 59.2625 52.8058 58.9624C52.509 58.6655 52.2849 58.6497 48.369 58.6497H44.2447L44.1403 60.7208ZM49.3674 66.0275C49.3674 63.3425 49.3152 62.2552 49.1799 62.1198C49.0767 62.0166 48.6297 61.9322 48.1866 61.9322H47.381L47.1877 64.0815C47.0098 66.0596 46.6661 68.5432 46.4522 69.396C46.3654 69.7424 46.3865 69.7477 47.8658 69.7477H49.3674V66.0275Z" fill="white"/>
<defs>
<filter id="filter0_f_10_1042" x="0" y="0" width="100" height="99" filterUnits="userSpaceOnUse" color-interpolation-filters="sRGB">
<feFlood flood-opacity="0" result="BackgroundImageFix"/>
<feBlend mode="normal" in="SourceGraphic" in2="BackgroundImageFix" result="shape"/>
<feGaussianBlur stdDeviation="3.5" result="effect1_foregroundBlur_10_1042"/>
</filter>
</defs>
</svg>
