<svg width="18" height="18" viewBox="0 0 18 18" fill="none" xmlns="http://www.w3.org/2000/svg">
<path d="M15 2.25V1.25C15 0.984784 14.8946 0.73043 14.7071 0.542893C14.5196 0.355357 14.2652 0.25 14 0.25C13.7348 0.25 13.4804 0.355357 13.2929 0.542893C13.1054 0.73043 13 0.984784 13 1.25V2.25H5V1.25C5 0.984784 4.89464 0.73043 4.70711 0.542893C4.51957 0.355357 4.26522 0.25 4 0.25C3.73478 0.25 3.48043 0.355357 3.29289 0.542893C3.10536 0.73043 3 0.984784 3 1.25V2.25C2.20508 2.25237 1.4434 2.56921 0.881302 3.1313C0.319207 3.6934 0.00237409 4.45508 0 5.25V14.9722C0.00237409 15.7671 0.319207 16.5288 0.881302 17.0909C1.4434 17.653 2.20508 17.9699 3 17.9722H15C15.7949 17.9699 16.5566 17.653 17.1187 17.0909C17.6808 16.5288 17.9976 15.7671 18 14.9722V5.25C17.9976 4.45508 17.6808 3.6934 17.1187 3.1313C16.5566 2.56921 15.7949 2.25237 15 2.25ZM16 14.9722C16 15.2374 15.8946 15.4918 15.7071 15.6793C15.5196 15.8669 15.2652 15.9722 15 15.9722H3C2.73478 15.9722 2.48043 15.8669 2.29289 15.6793C2.10536 15.4918 2 15.2374 2 14.9722V5.25C2 4.98478 2.10536 4.73043 2.29289 4.54289C2.48043 4.35536 2.73478 4.25 3 4.25H15C15.2652 4.25 15.5196 4.35536 15.7071 4.54289C15.8946 4.73043 16 4.98478 16 5.25V14.9722ZM14.25 5.69442H4C3.73478 5.69442 3.48043 5.79977 3.29289 5.98731C3.10536 6.17485 3 6.4292 3 6.69442C3 6.95963 3.10536 7.21399 3.29289 7.40152C3.48043 7.58906 3.73478 7.69442 4 7.69442H14.25C14.5152 7.69442 14.7696 7.58906 14.9571 7.40152C15.1446 7.21399 15.25 6.95963 15.25 6.69442C15.25 6.4292 15.1446 6.17485 14.9571 5.98731C14.7696 5.79977 14.5152 5.69442 14.25 5.69442Z" fill="#85949E"/>
<path d="M4.08301 9.11108H5.33301C5.59822 9.11108 5.85258 9.21644 6.04011 9.40398C6.22765 9.59151 6.33301 9.84587 6.33301 10.1111C6.33301 10.3763 6.22765 10.6307 6.04011 10.8182C5.85258 11.0057 5.59822 11.1111 5.33301 11.1111H4.08301C3.81779 11.1111 3.56344 11.0057 3.3759 10.8182C3.18836 10.6307 3.08301 10.3763 3.08301 10.1111C3.08301 9.84587 3.18836 9.59151 3.3759 9.40398C3.56344 9.21644 3.81779 9.11108 4.08301 9.11108Z" fill="#85949E"/>
<path d="M8.33301 9.11108H9.83301C10.0982 9.11108 10.3526 9.21644 10.5401 9.40398C10.7276 9.59151 10.833 9.84587 10.833 10.1111C10.833 10.3763 10.7276 10.6307 10.5401 10.8182C10.3526 11.0057 10.0982 11.1111 9.83301 11.1111H8.33301C8.06779 11.1111 7.81344 11.0057 7.6259 10.8182C7.43837 10.6307 7.33301 10.3763 7.33301 10.1111C7.33301 9.84587 7.43837 9.59151 7.6259 9.40398C7.81344 9.21644 8.06779 9.11108 8.33301 9.11108Z" fill="#85949E"/>
<path d="M12.833 9.11108H14.083C14.3482 9.11108 14.6026 9.21644 14.7901 9.40398C14.9777 9.59151 15.083 9.84587 15.083 10.1111C15.083 10.3763 14.9777 10.6307 14.7901 10.8182C14.6026 11.0057 14.3482 11.1111 14.083 11.1111H12.833C12.5678 11.1111 12.3134 11.0057 12.1259 10.8182C11.9384 10.6307 11.833 10.3763 11.833 10.1111C11.833 9.84587 11.9384 9.59151 12.1259 9.40398C12.3134 9.21644 12.5678 9.11108 12.833 9.11108Z" fill="#85949E"/>
<path d="M4.08268 12.3611H5.33268C5.5979 12.3611 5.85225 12.4664 6.03979 12.654C6.22733 12.8415 6.33268 13.0958 6.33268 13.3611C6.33268 13.6263 6.22733 13.8806 6.03979 14.0682C5.85225 14.2557 5.5979 14.3611 5.33268 14.3611H4.08268C3.81747 14.3611 3.56311 14.2557 3.37558 14.0682C3.18804 13.8806 3.08268 13.6263 3.08268 13.3611C3.08268 13.0958 3.18804 12.8415 3.37558 12.654C3.56311 12.4664 3.81747 12.3611 4.08268 12.3611Z" fill="#85949E"/>
<path d="M8.33268 12.3611H14.083C14.3482 12.3611 14.6026 12.4664 14.7901 12.654C14.9776 12.8415 15.083 13.0958 15.083 13.3611C15.083 13.6263 14.9776 13.8806 14.7901 14.0682C14.6026 14.2557 14.3482 14.3611 14.083 14.3611H8.33268C8.06746 14.3611 7.81311 14.2557 7.62558 14.0682C7.43804 13.8806 7.33268 13.6263 7.33268 13.3611C7.33268 13.0958 7.43804 12.8415 7.62558 12.654C7.81311 12.4664 8.06746 12.3611 8.33268 12.3611Z" fill="#85949E"/>
</svg>
