<svg width="132" height="133" viewBox="0 0 132 133" fill="none" xmlns="http://www.w3.org/2000/svg">
<path fill-rule="evenodd" clip-rule="evenodd" d="M66 86.05C61.4515 86.05 57.75 82.3485 57.75 77.8C57.75 73.2515 61.4515 69.55 66 69.55C70.5485 69.55 74.25 73.2515 74.25 77.8C74.25 82.3485 70.5485 86.05 66 86.05ZM66 58.55C55.385 58.55 46.75 67.1851 46.75 77.8C46.75 88.415 55.385 97.05 66 97.05C76.615 97.05 85.25 88.415 85.25 77.8C85.25 67.1851 76.615 58.55 66 58.55ZM110 99.8C110 102.831 107.536 105.3 104.5 105.3H27.5C24.464 105.3 22 102.831 22 99.8V55.8C22 52.7696 24.464 50.3 27.5 50.3H104.5C107.536 50.3 110 52.7696 110 55.8V99.8ZM55 31.05C55 29.532 56.2375 28.3 57.75 28.3H74.25C75.7625 28.3 77 29.532 77 31.05V39.3H55V31.05ZM104.5 39.3H88V31.05C88 23.471 81.8345 17.3 74.25 17.3H57.75C50.1655 17.3 44 23.471 44 31.05V39.3H27.5C18.403 39.3 11 46.703 11 55.8V99.8C11 108.897 18.403 116.3 27.5 116.3H104.5C113.597 116.3 121 108.897 121 99.8V55.8C121 46.703 113.597 39.3 104.5 39.3Z" fill="#F3F6F9"/>
</svg>
