<svg width="100" height="130" viewBox="0 0 100 130" fill="none" xmlns="http://www.w3.org/2000/svg">
<g id="Icon/Outline/people" opacity="0.03">
<path id="Mask" fill-rule="evenodd" clip-rule="evenodd" d="M32.4998 54.1667C32.4998 51.1821 34.9265 48.75 37.9165 48.75C40.9065 48.75 43.3332 51.1821 43.3332 54.1667C43.3332 57.1513 40.9065 59.5833 37.9165 59.5833C34.9265 59.5833 32.4998 57.1513 32.4998 54.1667ZM21.6665 54.1667C21.6665 63.1258 28.9573 70.4167 37.9165 70.4167C46.8756 70.4167 54.1665 63.1258 54.1665 54.1667C54.1665 45.2075 46.8756 37.9167 37.9165 37.9167C28.9573 37.9167 21.6665 45.2075 21.6665 54.1667ZM70.4165 37.9167C70.4165 31.9421 75.2753 27.0833 81.2498 27.0833C87.2244 27.0833 92.0832 31.9421 92.0832 37.9167C92.0832 43.8913 87.2244 48.75 81.2498 48.75C75.2753 48.75 70.4165 43.8913 70.4165 37.9167ZM59.5832 37.9167C59.5832 49.8658 69.3007 59.5833 81.2498 59.5833C93.199 59.5833 102.917 49.8658 102.917 37.9167C102.917 25.9675 93.199 16.25 81.2498 16.25C69.3007 16.25 59.5832 25.9675 59.5832 37.9167ZM54.4915 81.4992C49.7844 77.8592 43.9886 75.8333 37.9165 75.8333C22.9827 75.8333 10.8332 87.9829 10.8332 102.917C10.8332 105.907 13.2544 108.333 16.2498 108.333C19.2452 108.333 21.6665 105.907 21.6665 102.917C21.6665 93.9575 28.9573 86.6667 37.9165 86.6667C41.6161 86.6667 45.1315 87.9342 47.9698 90.1821C45.0232 95.5771 43.3332 101.763 43.3332 108.333C43.3332 111.323 45.7544 113.75 48.7498 113.75C51.7452 113.75 54.1665 111.323 54.1665 108.333C54.1665 93.3996 66.3161 81.25 81.2498 81.25C96.1836 81.25 108.333 93.3996 108.333 108.333C108.333 111.323 110.754 113.75 113.75 113.75C116.745 113.75 119.167 111.323 119.167 108.333C119.167 87.425 102.153 70.4167 81.2498 70.4167C70.8119 70.4167 61.3544 74.6579 54.4915 81.4992Z" fill="#85949E"/>
</g>
</svg>
