<svg width="100" height="130" viewBox="0 0 100 130" fill="none" xmlns="http://www.w3.org/2000/svg">
<g id="Icon/Outline/home" opacity="0.03">
<path id="Mask" fill-rule="evenodd" clip-rule="evenodd" d="M102.863 108.334H86.6676V70.4168C86.6676 67.4213 84.241 65.0001 81.251 65.0001H48.751C45.7556 65.0001 43.3343 67.4213 43.3343 70.4168V108.334H27.0843L27.1168 62.7413L64.9901 24.0066L102.918 62.9634L102.863 108.334ZM54.1676 108.334H75.8343V75.8335H54.1676V108.334ZM110.631 55.1688L68.8739 12.4637C66.8318 10.3783 63.1701 10.3783 61.1281 12.4637L19.3656 55.1742C17.3885 57.2055 16.251 60.0438 16.251 62.9634V108.334C16.251 114.308 20.8389 119.167 26.4776 119.167H48.751H81.251H103.519C109.158 119.167 113.751 114.308 113.751 108.334V62.9634C113.751 60.0438 112.613 57.2055 110.631 55.1688Z" fill="#85949E"/>
</g>
</svg>
