<svg width="98" height="130" viewBox="0 0 98 130" fill="none" xmlns="http://www.w3.org/2000/svg">
<g id="Icon/Outline/file-text" opacity="0.03">
<path id="Mask" fill-rule="evenodd" clip-rule="evenodd" d="M64.9999 75.8332H48.7499C45.7599 75.8332 43.3333 73.4066 43.3333 70.4166C43.3333 67.4266 45.7599 64.9999 48.7499 64.9999H64.9999C67.9899 64.9999 70.4166 67.4266 70.4166 70.4166C70.4166 73.4066 67.9899 75.8332 64.9999 75.8332ZM43.3333 92.0833C43.3333 89.0933 45.7599 86.6666 48.7499 86.6666H81.2499C84.2453 86.6666 86.6666 89.0933 86.6666 92.0833C86.6666 95.0732 84.2453 97.4999 81.2499 97.4999H48.7499C45.7599 97.4999 43.3333 95.0732 43.3333 92.0833ZM94.4899 108.333H35.5078C33.8503 108.333 32.5016 107.12 32.5016 105.625V24.3749C32.5016 22.8799 33.8503 21.6666 35.5078 21.6666H65.0015V38.7291C65.0015 47.2441 71.5936 54.1666 79.7024 54.1666H97.5015V105.625C97.5015 107.12 96.1528 108.333 94.4899 108.333ZM75.8349 26.9641L90.6874 43.3333H79.7024C77.5682 43.3333 75.8349 41.2695 75.8349 38.7291V26.9641ZM106.927 45.1099L77.4382 12.6099C76.409 11.4778 74.9574 10.8333 73.4245 10.8333H35.5078C27.8757 10.8333 21.6682 16.9108 21.6682 24.3749V105.625C21.6682 113.089 27.8757 119.167 35.5078 119.167H94.4899C102.122 119.167 108.335 113.089 108.335 105.625V48.7499C108.335 47.4012 107.831 46.1066 106.927 45.1099Z" fill="#85949E"/>
</g>
</svg>
