<svg width="124" height="22" viewBox="0 0 124 22" fill="none" xmlns="http://www.w3.org/2000/svg">
<path fill-rule="evenodd" clip-rule="evenodd" d="M0.131988 0.167013C0.0593648 0.239438 0 0.976551 0 1.80489C0 4.11042 0.0965667 4.19056 2.87801 4.19056H5.1398L5.19185 11.067L5.24389 17.9434H7.67547H10.1073L10.149 11.1165L10.191 4.2895L12.714 4.2341L15.237 4.17869V2.41793C15.237 1.08083 15.1622 0.582171 14.9261 0.345899C14.6548 0.0747996 13.6988 0.0350252 7.4394 0.0350252C3.49283 0.0350252 0.204413 0.09439 0.131988 0.167013ZM17.8925 0.518453C17.3397 0.797863 16.6851 1.24171 16.4379 1.5047L15.9885 1.98298L18.5313 6.92589L21.0741 11.8686L19.5407 14.1421C18.6973 15.3925 18.0087 16.5812 18.0103 16.7836C18.0178 17.684 18.7646 18.0423 20.634 18.0423H22.0993L23.1972 16.5088C24.7385 14.3558 25.8623 12.5642 27.3236 9.92916C29.012 6.88453 31.0662 2.25942 31.067 1.50035C31.068 0.542396 30.4814 0.158504 28.8792 0.0680716C26.7979 -0.0496686 26.6421 0.0296824 26.128 1.46651C25.4103 3.47363 23.9175 6.96092 23.7768 6.95993C23.7054 6.95933 23.0236 5.6264 22.2618 3.99782C21.5 2.36945 20.7409 0.853666 20.575 0.629663C20.0888 -0.0267141 19.0563 -0.0694568 17.8925 0.518453ZM32.189 0.167013C31.9579 0.397942 32.053 2.88473 32.3125 3.39903C32.5507 3.87118 32.6609 3.89829 34.7336 3.99268L36.9051 4.09162L36.9572 10.8026C36.9926 15.3527 37.08 17.5987 37.2289 17.778C37.3883 17.9701 38.0621 18.0423 39.6972 18.0423H41.946L41.998 11.067L42.0501 4.09162L44.3752 4.03582L46.7003 3.98021V2.31562C46.7003 -0.11873 47.2144 0.0350252 39.0707 0.0350252C35.3583 0.0350252 32.2614 0.09439 32.189 0.167013ZM57.9796 3.48748V6.97477L57.5344 6.7379C56.0588 5.95251 54.1951 3.85634 52.9384 1.56862C52.1154 0.0702483 51.9826 0.0191946 50.526 0.641338C48.5632 1.47977 48.0859 2.44187 48.8697 3.97843C49.2991 4.82003 51.3027 7.38834 52.1023 8.1219L52.6126 8.59028L52.2133 9.60602C51.6377 11.0698 50.7298 12.7203 50.04 13.5571C49.5955 14.0962 49.2904 14.2826 48.8525 14.2826C48.3671 14.2826 48.2127 14.4035 47.9765 14.9688C47.162 16.9184 48.246 18.2402 50.6595 18.2402C51.9018 18.2402 52.9805 17.7168 53.8086 16.7124C54.5527 15.8098 55.8674 13.3151 56.2105 12.1553C56.4937 11.1974 56.6079 11.156 57.405 11.7236L57.9796 12.1328V14.9817C57.9796 18.4156 57.8603 18.2794 60.7994 18.1977L62.8277 18.1413L62.8824 15.1335L62.937 12.1255L63.5065 11.72C64.2291 11.2053 64.242 11.2073 64.4047 11.8553C64.6615 12.8784 65.9046 15.348 66.6799 16.3746C67.6011 17.5947 68.7844 18.2402 70.1001 18.2402C71.9456 18.2402 73.0187 17.4683 73.0187 16.1409C73.0187 14.768 72.7448 14.2826 71.9697 14.2826C70.9702 14.2826 69.9187 12.9061 68.6619 9.9529L68.0459 8.50539L69.2095 7.28782C70.6791 5.75007 72.0267 3.7661 72.1601 2.9439C72.3315 1.88879 71.443 1.03255 69.4455 0.327892L68.6876 0.0605521L67.9658 1.3737C66.9595 3.20451 65.6086 4.87108 64.2129 6.00356L63.0256 6.96705L62.9267 3.80726C62.8574 1.59493 62.7508 0.570298 62.5711 0.39062C62.4013 0.221035 61.5795 0.11121 60.147 0.0670822L57.9796 0V3.48748ZM78.2735 2.65697C78.1043 6.01266 77.6737 9.49777 77.1178 12.0069L76.6795 13.9858L75.8385 14.0465L74.9975 14.1075V17.7428C74.9975 20.8143 75.0468 21.4273 75.3147 21.6953C75.5753 21.9559 76.0261 22.0026 77.8377 21.9569L80.0435 21.9011L80.1005 20.0706L80.1573 18.2402H83.4151H86.6726V19.8827C86.6726 20.8962 86.7634 21.6159 86.9101 21.7625C87.0668 21.9193 87.9082 22 89.3836 22H91.6197V18.2798C91.6197 15.6501 91.55 14.49 91.3822 14.3222C91.2516 14.1916 90.8064 14.0847 90.3928 14.0847H89.6408V7.45562C89.6408 1.09033 89.625 0.810725 89.2451 0.430791C88.8693 0.0550114 88.5855 0.0350252 83.6276 0.0350252H78.4057L78.2735 2.65697ZM94.8847 0.277827C93.9586 0.608093 92.6091 1.60325 92.6091 1.95607C92.6091 2.13139 93.7313 4.45434 95.1026 7.11823L97.5963 11.9614L96.1177 14.1609C94.2713 16.9077 94.339 16.7781 94.4953 17.2706C94.6795 17.8514 95.7534 18.2402 97.1736 18.2402C98.2855 18.2402 98.4365 18.1868 98.9835 17.6015C99.7275 16.8048 102.101 13.196 103.471 10.7763C104.608 8.77036 106.998 3.83774 107.548 2.3641C107.876 1.48531 107.877 1.39725 107.564 0.92055C107.381 0.641536 107.008 0.328089 106.735 0.224003C106.145 0.000197868 103.694 -0.0239438 103.356 0.190957C103.226 0.273474 102.85 1.07213 102.521 1.96577C101.688 4.22519 100.485 6.96092 100.324 6.96092C100.251 6.96092 99.516 5.54645 98.692 3.81775C96.8865 0.0300779 96.5244 -0.30652 94.8847 0.277827ZM108.988 1.41625C108.8 4.04195 108.957 4.19056 111.916 4.19056H113.783V10.9045C113.783 16.744 113.823 17.6588 114.093 17.9294C114.338 18.1739 114.865 18.2402 116.567 18.2402H118.73V11.2154V4.19056H121.203H123.677V2.4209C123.677 0.816464 123.635 0.622341 123.237 0.343129C122.859 0.0785594 121.826 0.0350252 115.942 0.0350252H109.087L108.988 1.41625ZM84.6542 4.42802C84.8256 4.59939 84.8917 5.97586 84.8917 9.37509V14.0847H82.9904C81.1174 14.0847 81.0907 14.078 81.2005 13.6395C81.4715 12.5598 81.9066 9.41565 82.1318 6.91145L82.3766 4.19056H83.3967C83.9577 4.19056 84.5236 4.29742 84.6542 4.42802Z" fill="#303438"/>
</svg>
