<svg width="117" height="165" viewBox="0 0 117 165" fill="none" xmlns="http://www.w3.org/2000/svg">
<g id="Icon/Outline/email" opacity="0.5">
<path id="Mask" fill-rule="evenodd" clip-rule="evenodd" d="M132.424 123.75H34.8484C31.0082 123.75 27.8788 120.67 27.8788 116.875V49.8437L79.4543 88C80.6949 88.9212 82.1655 89.375 83.636 89.375C85.1066 89.375 86.5772 88.9212 87.8178 88L139.393 49.8437V116.875C139.393 120.67 136.264 123.75 132.424 123.75ZM127.775 41.25L83.636 73.9062L39.4972 41.25H127.775ZM132.424 27.5H34.8484C23.3206 27.5 13.9395 36.7537 13.9395 48.125V116.875C13.9395 128.246 23.3206 137.5 34.8484 137.5H132.424C143.952 137.5 153.333 128.246 153.333 116.875V48.125C153.333 36.7537 143.952 27.5 132.424 27.5Z" fill="#EAEEF1"/>
</g>
</svg>
