<svg width="117" height="165" viewBox="0 0 117 165" fill="none" xmlns="http://www.w3.org/2000/svg">
<g id="Icon/Outline/file-text" opacity="0.5">
<path id="Mask" fill-rule="evenodd" clip-rule="evenodd" d="M83.636 96.25H62.7271C58.8798 96.25 55.7574 93.17 55.7574 89.375C55.7574 85.58 58.8798 82.5 62.7271 82.5H83.636C87.4833 82.5 90.6057 85.58 90.6057 89.375C90.6057 93.17 87.4833 96.25 83.636 96.25ZM62.7271 110H104.545C108.399 110 111.515 113.08 111.515 116.875C111.515 120.67 108.399 123.75 104.545 123.75H62.7271C58.8798 123.75 55.7574 120.67 55.7574 116.875C55.7574 113.08 58.8798 110 62.7271 110ZM121.581 137.5H45.6883C43.5556 137.5 41.8202 135.96 41.8202 134.062V30.9375C41.8202 29.04 43.5556 27.5 45.6883 27.5H83.6381V49.1562C83.6381 59.9637 92.1202 68.75 102.554 68.75H125.456V134.062C125.456 135.96 123.721 137.5 121.581 137.5ZM97.5774 34.2237L116.688 55H102.554C99.8077 55 97.5774 52.3806 97.5774 49.1563V34.2237ZM137.583 57.255L99.6404 16.005C98.3162 14.5681 96.4483 13.75 94.4759 13.75H45.6883C35.8681 13.75 27.8809 21.4637 27.8809 30.9375V134.062C27.8809 143.536 35.8681 151.25 45.6883 151.25H121.581C131.401 151.25 139.395 143.536 139.395 134.062V61.875C139.395 60.1631 138.747 58.52 137.583 57.255Z" fill="#EAEEF1"/>
</g>
</svg>
