<svg width="14" height="14" viewBox="0 0 14 14" fill="none" xmlns="http://www.w3.org/2000/svg">
<path d="M0 3C0 1.34315 1.34315 0 3 0H11C12.6569 0 14 1.34315 14 3V11C14 12.6569 12.6569 14 11 14H3C1.34315 14 0 12.6569 0 11V3Z" fill="#B967E0"/>
<path d="M6.19971 6.84277H6.74756C7.2596 6.84277 7.64274 6.74251 7.89697 6.54199C8.1512 6.33789 8.27832 6.04248 8.27832 5.65576C8.27832 5.26546 8.1709 4.97721 7.95605 4.79102C7.74479 4.60482 7.41178 4.51172 6.95703 4.51172H6.19971V6.84277ZM9.95947 5.59668C9.95947 6.44173 9.6945 7.08805 9.16455 7.53564C8.63818 7.98324 7.88802 8.20703 6.91406 8.20703H6.19971V11H4.53467V3.14746H7.04297C7.99544 3.14746 8.71875 3.35335 9.21289 3.76514C9.71061 4.17334 9.95947 4.78385 9.95947 5.59668Z" fill="white"/>
</svg>
