<svg width="130" height="100" viewBox="0 0 130 100" fill="none" xmlns="http://www.w3.org/2000/svg">
<g id="Icon/Outline/people">
<path id="Mask" fill-rule="evenodd" clip-rule="evenodd" d="M97.5002 54.1667C97.5002 51.1821 95.0735 48.75 92.0835 48.75C89.0935 48.75 86.6668 51.1821 86.6668 54.1667C86.6668 57.1513 89.0935 59.5833 92.0835 59.5833C95.0735 59.5833 97.5002 57.1513 97.5002 54.1667ZM108.333 54.1667C108.333 63.1258 101.043 70.4167 92.0835 70.4167C83.1243 70.4167 75.8335 63.1258 75.8335 54.1667C75.8335 45.2075 83.1243 37.9167 92.0835 37.9167C101.043 37.9167 108.333 45.2075 108.333 54.1667ZM59.5835 37.9167C59.5835 31.9421 54.7247 27.0833 48.7502 27.0833C42.7756 27.0833 37.9168 31.9421 37.9168 37.9167C37.9168 43.8913 42.7756 48.75 48.7502 48.75C54.7247 48.75 59.5835 43.8913 59.5835 37.9167ZM70.4168 37.9167C70.4168 49.8658 60.6993 59.5833 48.7502 59.5833C36.801 59.5833 27.0835 49.8658 27.0835 37.9167C27.0835 25.9675 36.801 16.25 48.7502 16.25C60.6993 16.25 70.4168 25.9675 70.4168 37.9167ZM75.5085 81.4992C80.2156 77.8592 86.0114 75.8333 92.0835 75.8333C107.017 75.8333 119.167 87.9829 119.167 102.917C119.167 105.907 116.746 108.333 113.75 108.333C110.755 108.333 108.334 105.907 108.334 102.917C108.334 93.9575 101.043 86.6667 92.0835 86.6667C88.3839 86.6667 84.8685 87.9342 82.0302 90.1821C84.9768 95.5771 86.6668 101.763 86.6668 108.333C86.6668 111.323 84.2456 113.75 81.2502 113.75C78.2548 113.75 75.8335 111.323 75.8335 108.333C75.8335 93.3996 63.6839 81.25 48.7502 81.25C33.8164 81.25 21.6668 93.3996 21.6668 108.333C21.6668 111.323 19.2456 113.75 16.2502 113.75C13.2547 113.75 10.8335 111.323 10.8335 108.333C10.8335 87.425 27.8472 70.4167 48.7502 70.4167C59.1881 70.4167 68.6456 74.6579 75.5085 81.4992Z" fill="#F9FBFE"/>
</g>
</svg>
