<svg width="130" height="100" viewBox="0 0 130 100" fill="none" xmlns="http://www.w3.org/2000/svg">
<g id="Icon/Outline/timer">
<path id="Mask" fill-rule="evenodd" clip-rule="evenodd" d="M81.25 75.5833H70.4167V64.75C70.4167 61.7546 67.99 59.3333 65 59.3333C62.01 59.3333 59.5833 61.7546 59.5833 64.75V81C59.5833 83.9954 62.01 86.4167 65 86.4167H81.25C84.24 86.4167 86.6667 83.9954 86.6667 81C86.6667 78.0046 84.24 75.5833 81.25 75.5833ZM65 117.563C44.8392 117.563 28.4375 101.161 28.4375 81C28.4375 60.8392 44.8392 44.4375 65 44.4375C85.1608 44.4375 101.562 60.8392 101.562 81C101.562 101.161 85.1608 117.563 65 117.563ZM70.3517 32.5642C70.3625 32.4504 70.4167 32.3638 70.4167 32.25V26.8333H75.8333C78.8233 26.8333 81.25 24.4121 81.25 21.4167C81.25 18.4213 78.8233 16 75.8333 16H54.1667C51.1767 16 48.75 18.4213 48.75 21.4167C48.75 24.4121 51.1767 26.8333 54.1667 26.8333H59.5833V32.25C59.5833 32.3638 59.6375 32.4504 59.6483 32.5642C35.2787 35.24 16.25 55.9317 16.25 81C16.25 107.883 38.1225 129.75 65 129.75C91.8775 129.75 113.75 107.883 113.75 81C113.75 55.9317 94.7212 35.24 70.3517 32.5642Z" fill="#F9FBFE"/>
</g>
</svg>
