<svg width="130" height="100" viewBox="0 0 130 100" fill="none" xmlns="http://www.w3.org/2000/svg">
<g id="Icon/Outline/clipboard">
<path id="Mask" fill-rule="evenodd" clip-rule="evenodd" d="M102.917 107.917C102.917 110.907 100.485 113.333 97.5 113.333H32.5C29.5154 113.333 27.0833 110.907 27.0833 107.917V48.3335C27.0833 45.3435 29.5154 42.9168 32.5 42.9168V48.3335C32.5 54.3081 37.3587 59.1668 43.3333 59.1668H86.6667C92.6413 59.1668 97.5 54.3081 97.5 48.3335V42.9168C100.485 42.9168 102.917 45.3435 102.917 48.3335V107.917ZM43.3333 26.6668L86.6667 26.6831V32.0835V48.3335H43.3333V32.0835V26.6668ZM97.5 32.0835V26.6668C97.5 20.6922 92.6413 15.8335 86.6667 15.8335H43.3333C37.3587 15.8335 32.5 20.6922 32.5 26.6668V32.0835C23.5408 32.0835 16.25 39.3743 16.25 48.3335V107.917C16.25 116.876 23.5408 124.167 32.5 124.167H97.5C106.459 124.167 113.75 116.876 113.75 107.917V48.3335C113.75 39.3743 106.459 32.0835 97.5 32.0835Z" fill="#F9FBFE"/>
</g>
</svg>
