<svg width="20" height="20" viewBox="0 0 20 20" fill="none" xmlns="http://www.w3.org/2000/svg">
<g id="Icon/Outline/arrow-ios-right">
<path id="Mask" fill-rule="evenodd" clip-rule="evenodd" d="M15.8325 11.6671C15.8325 11.8554 15.7692 12.0446 15.6392 12.2004C15.345 12.5538 14.8192 12.6013 14.4659 12.3071L9.99004 8.57709L5.52171 12.1729C5.16337 12.4613 4.63837 12.4046 4.35004 12.0463C4.06171 11.6871 4.11837 11.1629 4.47671 10.8738L9.47671 6.85042C9.78587 6.60209 10.2275 6.60542 10.5325 6.85959L15.5325 11.0263C15.73 11.1913 15.8325 11.4279 15.8325 11.6671Z" fill="#1C7BBB"/>
<mask id="mask0_27_3334" style="mask-type:alpha" maskUnits="userSpaceOnUse" x="4" y="6" width="12" height="7">
<path id="Mask_2" fill-rule="evenodd" clip-rule="evenodd" d="M15.8325 11.6671C15.8325 11.8554 15.7692 12.0446 15.6392 12.2004C15.345 12.5538 14.8192 12.6013 14.4659 12.3071L9.99004 8.57709L5.52171 12.1729C5.16337 12.4613 4.63837 12.4046 4.35004 12.0463C4.06171 11.6871 4.11837 11.1629 4.47671 10.8738L9.47671 6.85042C9.78587 6.60209 10.2275 6.60542 10.5325 6.85959L15.5325 11.0263C15.73 11.1913 15.8325 11.4279 15.8325 11.6671Z" fill="white"/>
</mask>
<g mask="url(#mask0_27_3334)">
<g id="&#240;&#159;&#142;&#168; Color">
<rect id="Base" y="20" width="20" height="20" transform="rotate(-90 0 20)" fill="#1C7BBB"/>
</g>
</g>
</g>
</svg>
