<svg width="20" height="20" viewBox="0 0 20 20" fill="none" xmlns="http://www.w3.org/2000/svg">
<g id="Icon/Outline/arrow-ios-right">
<path id="Mask" fill-rule="evenodd" clip-rule="evenodd" d="M4.16746 8.33291C4.16746 8.14458 4.23079 7.95541 4.36079 7.79958C4.65496 7.44625 5.18079 7.39875 5.53413 7.69291L10.01 11.4229L14.4783 7.82708C14.8366 7.53875 15.3616 7.59541 15.65 7.95375C15.9383 8.31291 15.8816 8.83708 15.5233 9.12625L10.5233 13.1496C10.2141 13.3979 9.77246 13.3946 9.46746 13.1404L4.46746 8.97375C4.26996 8.80875 4.16746 8.57208 4.16746 8.33291Z" fill="#1C7BBB"/>
<mask id="mask0_27_3330" style="mask-type:alpha" maskUnits="userSpaceOnUse" x="4" y="7" width="12" height="7">
<path id="Mask_2" fill-rule="evenodd" clip-rule="evenodd" d="M4.16746 8.33291C4.16746 8.14458 4.23079 7.95541 4.36079 7.79958C4.65496 7.44625 5.18079 7.39875 5.53413 7.69291L10.01 11.4229L14.4783 7.82708C14.8366 7.53875 15.3616 7.59541 15.65 7.95375C15.9383 8.31291 15.8816 8.83708 15.5233 9.12625L10.5233 13.1496C10.2141 13.3979 9.77246 13.3946 9.46746 13.1404L4.46746 8.97375C4.26996 8.80875 4.16746 8.57208 4.16746 8.33291Z" fill="white"/>
</mask>
<g mask="url(#mask0_27_3330)">
<g id="&#240;&#159;&#142;&#168; Color">
<rect id="Base" x="20" width="20" height="20" transform="rotate(90 20 0)" fill="#1C7BBB"/>
</g>
</g>
</g>
</svg>
